<svg xmlns="http://www.w3.org/2000/svg" version="1.1" xmlns:xlink="http://www.w3.org/1999/xlink" xmlns:svgjs="http://svgjs.dev/svgjs" width="1000" height="623" viewBox="0 0 1000 623"><g transform="matrix(1,0,0,1,-0.6060606060606233,0.2522267206477409)"><svg viewBox="0 0 396 247" data-background-color="#ffffff" preserveAspectRatio="xMidYMid meet" height="623" width="1000" xmlns="http://www.w3.org/2000/svg" xmlns:xlink="http://www.w3.org/1999/xlink"><g id="tight-bounds" transform="matrix(1,0,0,1,0.2400000000000091,-0.09999999999999432)"><svg viewBox="0 0 395.52 247.2" height="247.2" width="395.52"><g><svg></svg></g><g><svg viewBox="0 0 395.52 247.2" height="247.2" width="395.52"><g transform="matrix(1,0,0,1,106.40421630901287,47.215199999999996)"><svg viewBox="0 0 182.71156738197425 152.7696" height="152.7696" width="182.71156738197425"><g><svg viewBox="0 0 182.71156738197425 152.7696" height="152.7696" width="182.71156738197425"><g><svg viewBox="0 0 182.71156738197425 152.7696" height="152.7696" width="182.71156738197425"><g><svg viewBox="0 0 182.71156738197425 152.7696" height="152.7696" width="182.71156738197425"><g id="textblocktransform"><svg viewBox="0 0 182.71156738197425 152.7696" height="152.7696" width="182.71156738197425" id="textblock"><g><svg viewBox="0 0 182.71156738197425 152.7696" height="152.7696" width="182.71156738197425"><g transform="matrix(1,0,0,1,0,0)"><svg width="182.71156738197425" viewBox="0 -34.95000076293945 41.79999923706055 34.95000076293945" height="152.7696" data-palette-color="#4790fc"><path d="M0-2.15L4.85-2.15 4.85-34.95 10.75-34.95 31.05-8.85 31.05-34.95 36.95-34.95 36.95-2.15 41.8-2.15 41.8 0 30.55 0 10.75-25.5 10.75 0 0 0 0-2.15Z" opacity="1" transform="matrix(1,0,0,1,0,0)" fill="#4790fc" class="wordmark-text-0" data-fill-palette-color="primary" id="text-0"></path></svg></g></svg></g></svg></g></svg></g></svg></g></svg></g></svg></g><path d="M106.814 41.215L106.814 0 354.014 0 354.014 247.2 106.814 247.2 106.814 205.985 120.591 205.985 120.591 233.423 340.238 233.423 340.238 13.777 120.591 13.777 120.591 41.215Z" fill="#4790fc" stroke="transparent" data-fill-palette-color="primary"></path></svg></g><defs></defs></svg><rect width="395.52" height="247.2" fill="none" stroke="none" visibility="hidden"></rect></g></svg></g></svg>