<svg xmlns="http://www.w3.org/2000/svg" xmlns:xlink="http://www.w3.org/1999/xlink" width="500" zoomAndPan="magnify" viewBox="0 0 375 374.999991" height="500" preserveAspectRatio="xMidYMid meet" version="1.0"><defs><g/><clipPath id="dbeb17b175"><path d="M 20.160156 166.308594 L 354.839844 166.308594 L 354.839844 206.523438 L 20.160156 206.523438 Z M 20.160156 166.308594 " clip-rule="nonzero"/></clipPath></defs><g fill="#fbfaf9" fill-opacity="1"><g transform="translate(60.530989, 259.53815)"><g><path d="M 12.394531 0 L 19.476562 0 C 18.0625 -13.457031 17.53125 -21.425781 17.53125 -37.894531 L 17.53125 -133.691406 L 18.238281 -133.515625 L 92.257812 0 L 127.847656 0 C 126.609375 -13.457031 126.078125 -21.425781 126.078125 -37.894531 L 126.078125 -103.765625 C 126.078125 -120.234375 126.609375 -128.203125 127.847656 -141.660156 L 120.941406 -141.660156 C 122.359375 -128.203125 122.714844 -120.234375 122.714844 -103.765625 L 122.714844 -7.96875 L 122.003906 -8.144531 L 48.164062 -141.660156 L 12.394531 -141.660156 C 13.8125 -128.203125 14.34375 -120.234375 14.34375 -103.765625 L 14.34375 -37.894531 C 14.34375 -21.425781 13.8125 -13.457031 12.394531 0 Z M 12.394531 0 "/></g></g></g><g fill="#fbfaf9" fill-opacity="1"><g transform="translate(191.916663, 259.53815)"><g><path d="M 7.082031 -41.082031 C 22.664062 -8.144531 44.089844 3.542969 72.421875 3.542969 C 95.621094 3.542969 115.453125 -8.324219 115.453125 -33.46875 C 115.453125 -57.371094 98.808594 -68.882812 65.339844 -91.195312 C 39.84375 -108.015625 32.050781 -113.503906 32.050781 -124.660156 C 32.050781 -134.222656 40.375 -141.484375 54.363281 -141.484375 C 77.382812 -141.484375 86.414062 -121.828125 91.546875 -102.347656 L 112.441406 -111.027344 C 96.507812 -135.285156 78.621094 -145.203125 56.132812 -145.203125 C 33.644531 -145.203125 15.40625 -134.578125 15.40625 -113.859375 C 15.40625 -94.734375 27.09375 -84.996094 55.957031 -65.339844 C 84.464844 -45.332031 98.984375 -35.945312 98.984375 -22.3125 C 98.984375 -8.324219 89.421875 -0.175781 74.546875 -0.175781 C 50.820312 -0.175781 33.820312 -22.664062 28.15625 -52.769531 Z M 7.082031 -41.082031 "/></g></g></g><g clip-path="url(#dbeb17b175)"><path fill="#231f20" d="M 20.160156 166.308594 L 354.839844 166.308594 L 354.839844 206.523438 L 20.160156 206.523438 Z M 20.160156 166.308594 " fill-opacity="1" fill-rule="nonzero"/></g><g fill="#dec2ba" fill-opacity="1"><g transform="translate(96.81659, 190.806194)"><g><path d="M 8.65625 0 L 7.21875 0 L 2.609375 -6.21875 L 2.609375 0 L 1.140625 0 L 1.140625 -8.671875 L 2.578125 -8.671875 L 7.21875 -2.4375 L 7.21875 -8.671875 L 8.65625 -8.671875 Z M 8.65625 0 "/></g></g></g><g fill="#dec2ba" fill-opacity="1"><g transform="translate(116.549177, 190.806194)"><g><path d="M 6.734375 -1.953125 L 2.359375 -1.953125 L 1.53125 0 L 0.015625 0 L 3.84375 -8.671875 L 5.34375 -8.671875 L 9.125 0 L 7.578125 0 Z M 6.1875 -3.265625 L 4.546875 -7.109375 L 2.90625 -3.265625 Z M 6.1875 -3.265625 "/></g></g></g><g fill="#dec2ba" fill-opacity="1"><g transform="translate(135.612923, 190.806194)"><g><path d="M 2.609375 0 L 1.140625 0 L 1.140625 -8.671875 L 2.609375 -8.671875 Z M 2.609375 0 "/></g></g></g><g fill="#dec2ba" fill-opacity="1"><g transform="translate(149.276425, 190.806194)"><g><path d="M 7.0625 -7.359375 L 4.3125 -7.359375 L 4.3125 0 L 2.84375 0 L 2.84375 -7.359375 L 0.109375 -7.359375 L 0.109375 -8.671875 L 7.0625 -8.671875 Z M 7.0625 -7.359375 "/></g></g></g><g fill="#dec2ba" fill-opacity="1"><g transform="translate(166.370812, 190.806194)"><g><path d="M 2.609375 0 L 1.140625 0 L 1.140625 -8.671875 L 2.609375 -8.671875 Z M 2.609375 0 "/></g></g></g><g fill="#dec2ba" fill-opacity="1"><g transform="translate(180.034315, 190.806194)"><g><path d="M 6.921875 0 L 4.078125 -3.828125 L 2.609375 -2.203125 L 2.609375 0 L 1.140625 0 L 1.140625 -8.671875 L 2.609375 -8.671875 L 2.609375 -4.1875 L 6.734375 -8.671875 L 8.46875 -8.671875 L 5.109375 -4.96875 L 8.6875 0 Z M 6.921875 0 "/></g></g></g><g fill="#dec2ba" fill-opacity="1"><g transform="translate(198.85035, 190.806194)"><g/></g></g><g fill="#dec2ba" fill-opacity="1"><g transform="translate(211.968885, 190.806194)"><g><path d="M 3.984375 -8.734375 C 5.109375 -8.734375 6.125 -8.4375 7.03125 -7.84375 L 6.421875 -6.546875 C 5.535156 -7.085938 4.6875 -7.359375 3.875 -7.359375 C 3.4375 -7.359375 3.09375 -7.28125 2.84375 -7.125 C 2.59375 -6.96875 2.46875 -6.742188 2.46875 -6.453125 C 2.46875 -6.160156 2.582031 -5.914062 2.8125 -5.71875 C 3.039062 -5.519531 3.328125 -5.367188 3.671875 -5.265625 C 4.023438 -5.171875 4.40625 -5.050781 4.8125 -4.90625 C 5.21875 -4.769531 5.59375 -4.617188 5.9375 -4.453125 C 6.28125 -4.296875 6.566406 -4.046875 6.796875 -3.703125 C 7.023438 -3.359375 7.140625 -2.941406 7.140625 -2.453125 C 7.140625 -1.691406 6.832031 -1.082031 6.21875 -0.625 C 5.613281 -0.175781 4.828125 0.046875 3.859375 0.046875 C 3.203125 0.046875 2.5625 -0.0703125 1.9375 -0.3125 C 1.320312 -0.5625 0.785156 -0.898438 0.328125 -1.328125 L 0.953125 -2.59375 C 1.390625 -2.1875 1.867188 -1.875 2.390625 -1.65625 C 2.921875 -1.4375 3.421875 -1.328125 3.890625 -1.328125 C 4.398438 -1.328125 4.796875 -1.421875 5.078125 -1.609375 C 5.367188 -1.796875 5.515625 -2.050781 5.515625 -2.375 C 5.515625 -2.675781 5.394531 -2.925781 5.15625 -3.125 C 4.925781 -3.332031 4.640625 -3.484375 4.296875 -3.578125 C 3.953125 -3.671875 3.578125 -3.785156 3.171875 -3.921875 C 2.765625 -4.054688 2.390625 -4.195312 2.046875 -4.34375 C 1.703125 -4.5 1.410156 -4.742188 1.171875 -5.078125 C 0.941406 -5.421875 0.828125 -5.832031 0.828125 -6.3125 C 0.828125 -7.050781 1.113281 -7.640625 1.6875 -8.078125 C 2.269531 -8.515625 3.035156 -8.734375 3.984375 -8.734375 Z M 3.984375 -8.734375 "/></g></g></g><g fill="#dec2ba" fill-opacity="1"><g transform="translate(229.595864, 190.806194)"><g><path d="M 8.65625 0 L 7.203125 0 L 7.203125 -3.59375 L 2.609375 -3.59375 L 2.609375 0 L 1.140625 0 L 1.140625 -8.671875 L 2.609375 -8.671875 L 2.609375 -4.90625 L 7.203125 -4.90625 L 7.203125 -8.671875 L 8.65625 -8.671875 Z M 8.65625 0 "/></g></g></g><g fill="#dec2ba" fill-opacity="1"><g transform="translate(249.316056, 190.806194)"><g><path d="M 6.734375 -1.953125 L 2.359375 -1.953125 L 1.53125 0 L 0.015625 0 L 3.84375 -8.671875 L 5.34375 -8.671875 L 9.125 0 L 7.578125 0 Z M 6.1875 -3.265625 L 4.546875 -7.109375 L 2.90625 -3.265625 Z M 6.1875 -3.265625 "/></g></g></g><g fill="#dec2ba" fill-opacity="1"><g transform="translate(268.379796, 190.806194)"><g><path d="M 8.65625 0 L 7.203125 0 L 7.203125 -3.59375 L 2.609375 -3.59375 L 2.609375 0 L 1.140625 0 L 1.140625 -8.671875 L 2.609375 -8.671875 L 2.609375 -4.90625 L 7.203125 -4.90625 L 7.203125 -8.671875 L 8.65625 -8.671875 Z M 8.65625 0 "/></g></g></g></svg>